<svg height="83pt" viewBox="0.00 0.00 291.00 82.58" width="291pt" xmlns="http://www.w3.org/2000/svg" xmlns:xlink="http://www.w3.org/1999/xlink">
<g class="graph" id="graph0" transform="scale(1 1) rotate(0) translate(4 78.5775)">
<title>%3</title>
<polygon fill="#ffffff" points="-4,4 -4,-78.5775 287.0039,-78.5775 287.0039,4 -4,4" stroke="transparent"/>
<!-- _START -->
<g class="node" id="node1">
<title>_START</title>
</g>
<!-- 0 -->
<g class="node" id="node2">
<title>0</title>
<path d="M56.6686,-28.5775C56.6686,-28.5775 47.3314,-28.5775 47.3314,-28.5775 44.6647,-28.5775 41.998,-25.9109 41.998,-23.2442 41.998,-23.2442 41.998,-17.9109 41.998,-17.9109 41.998,-15.2442 44.6647,-12.5775 47.3314,-12.5775 47.3314,-12.5775 56.6686,-12.5775 56.6686,-12.5775 59.3353,-12.5775 62.002,-15.2442 62.002,-17.9109 62.002,-17.9109 62.002,-23.2442 62.002,-23.2442 62.002,-25.9109 59.3353,-28.5775 56.6686,-28.5775" fill="none" stroke="#000000"/>
<text fill="#000000" font-family="Courier,monospace" font-size="10.00" text-anchor="start" x="45.999" y="-17.5775">q0</text>
</g>
<!-- _START&#45;&gt;0 -->
<g class="edge" id="edge1">
<title>_START-&gt;0</title>
<path d="M1.0784,-20.5775C4.5514,-20.5775 22.9474,-20.5775 36.6374,-20.5775" fill="none" stroke="#000000"/>
<polygon fill="#000000" points="41.7945,-20.5775 36.7945,-22.8276 39.2945,-20.5776 36.7945,-20.5776 36.7945,-20.5776 36.7945,-20.5776 39.2945,-20.5776 36.7944,-18.3276 41.7945,-20.5775 41.7945,-20.5775" stroke="#000000"/>
</g>
<!-- 0&#45;&gt;0 -->
<g class="edge" id="edge2">
<title>0-&gt;0</title>
<path d="M47.3184,-28.831C44.5645,-37.2296 46.125,-46.5775 52,-46.5775 56.6816,-46.5775 58.6236,-40.6415 57.8258,-33.9801" fill="none" stroke="#000000"/>
<polygon fill="#000000" points="56.6816,-28.831 59.9627,-33.2239 57.2239,-31.2715 57.7663,-33.7119 57.7663,-33.7119 57.7663,-33.7119 57.2239,-31.2715 55.5698,-34.2 56.6816,-28.831 56.6816,-28.831" stroke="#000000"/>
<text fill="#000000" font-family="Courier,monospace" font-size="9.00" text-anchor="start" x="49.7996" y="-64.3775">0</text>
<text fill="#000000" font-family="Courier,monospace" font-size="9.00" text-anchor="start" x="49.7996" y="-51.3775">1</text>
</g>
<!-- 2 -->
<g class="node" id="node4">
<title>2</title>
<path d="M127.6696,-28.5775C127.6696,-28.5775 118.3324,-28.5775 118.3324,-28.5775 115.6657,-28.5775 112.999,-25.9109 112.999,-23.2442 112.999,-23.2442 112.999,-17.9109 112.999,-17.9109 112.999,-15.2442 115.6657,-12.5775 118.3324,-12.5775 118.3324,-12.5775 127.6696,-12.5775 127.6696,-12.5775 130.3363,-12.5775 133.0029,-15.2442 133.0029,-17.9109 133.0029,-17.9109 133.0029,-23.2442 133.0029,-23.2442 133.0029,-25.9109 130.3363,-28.5775 127.6696,-28.5775" fill="none" stroke="#000000"/>
<text fill="#000000" font-family="Courier,monospace" font-size="10.00" text-anchor="start" x="117" y="-17.5775">q1</text>
</g>
<!-- 0&#45;&gt;2 -->
<g class="edge" id="edge3">
<title>0-&gt;2</title>
<path d="M62.1727,-20.5775C74.0883,-20.5775 93.9471,-20.5775 107.7179,-20.5775" fill="none" stroke="#000000"/>
<polygon fill="#000000" points="112.8471,-20.5775 107.8472,-22.8276 110.3471,-20.5776 107.8471,-20.5776 107.8471,-20.5776 107.8471,-20.5776 110.3471,-20.5776 107.8471,-18.3276 112.8471,-20.5775 112.8471,-20.5775" stroke="#000000"/>
<text fill="#000000" font-family="Courier,monospace" font-size="9.00" text-anchor="start" x="87.2996" y="-24.8775">0</text>
</g>
<!-- 1 -->
<g class="node" id="node3">
<title>1</title>
<path d="M273.6725,-28.5775C273.6725,-28.5775 264.3353,-28.5775 264.3353,-28.5775 261.6686,-28.5775 259.002,-25.9109 259.002,-23.2442 259.002,-23.2442 259.002,-17.9109 259.002,-17.9109 259.002,-15.2442 261.6686,-12.5775 264.3353,-12.5775 264.3353,-12.5775 273.6725,-12.5775 273.6725,-12.5775 276.3392,-12.5775 279.0059,-15.2442 279.0059,-17.9109 279.0059,-17.9109 279.0059,-23.2442 279.0059,-23.2442 279.0059,-25.9109 276.3392,-28.5775 273.6725,-28.5775" fill="none" stroke="#000000"/>
<text fill="#000000" font-family="Courier,monospace" font-size="10.00" text-anchor="start" x="263.0029" y="-17.5775">qe</text>
</g>
<!-- 1&#45;&gt;1 -->
<g class="edge" id="edge7">
<title>1-&gt;1</title>
<path d="M263.7371,-28.831C260.6389,-37.2296 262.3945,-46.5775 269.0039,-46.5775 274.2708,-46.5775 276.4554,-40.6415 275.5579,-33.9801" fill="none" stroke="#000000"/>
<polygon fill="#000000" points="274.2708,-28.831 277.6662,-33.136 274.8771,-31.2564 275.4834,-33.6817 275.4834,-33.6817 275.4834,-33.6817 274.8771,-31.2564 273.3005,-34.2274 274.2708,-28.831 274.2708,-28.831" stroke="#000000"/>
<text fill="#000000" font-family="Courier,monospace" font-size="9.00" text-anchor="start" x="266.8035" y="-64.3775">0</text>
<text fill="#000000" font-family="Courier,monospace" font-size="9.00" text-anchor="start" x="266.8035" y="-51.3775">1</text>
</g>
<!-- 2&#45;&gt;0 -->
<g class="edge" id="edge4">
<title>2-&gt;0</title>
<path d="M114.1463,-12.5368C108.9695,-8.3882 102.0758,-3.7515 95,-1.5775 84.7311,1.5775 73.6544,-3.5347 65.3153,-9.2468" fill="none" stroke="#000000"/>
<polygon fill="#000000" points="60.9866,-12.4333 63.6794,-7.6571 62.9999,-10.9512 65.0133,-9.4691 65.0133,-9.4691 65.0133,-9.4691 62.9999,-10.9512 66.3472,-11.2811 60.9866,-12.4333 60.9866,-12.4333" stroke="#000000"/>
<text fill="#000000" font-family="Courier,monospace" font-size="9.00" text-anchor="start" x="87.2996" y="-5.8775">0</text>
</g>
<!-- 3 -->
<g class="node" id="node5">
<title>3</title>
<path d="M198.6713,-28.5775C198.6713,-28.5775 189.3346,-28.5775 189.3346,-28.5775 186.6679,-28.5775 184.0013,-25.9109 184.0013,-23.2442 184.0013,-23.2442 184.0013,-17.9109 184.0013,-17.9109 184.0013,-15.2442 186.6679,-12.5775 189.3346,-12.5775 189.3346,-12.5775 198.6713,-12.5775 198.6713,-12.5775 201.3379,-12.5775 204.0046,-15.2442 204.0046,-17.9109 204.0046,-17.9109 204.0046,-23.2442 204.0046,-23.2442 204.0046,-25.9109 201.3379,-28.5775 198.6713,-28.5775" fill="none" stroke="#000000"/>
<path d="M200.0049,-32.5775C200.0049,-32.5775 188.001,-32.5775 188.001,-32.5775 184.001,-32.5775 180.001,-28.5775 180.001,-24.5775 180.001,-24.5775 180.001,-16.5775 180.001,-16.5775 180.001,-12.5775 184.001,-8.5775 188.001,-8.5775 188.001,-8.5775 200.0049,-8.5775 200.0049,-8.5775 204.0049,-8.5775 208.0049,-12.5775 208.0049,-16.5775 208.0049,-16.5775 208.0049,-24.5775 208.0049,-24.5775 208.0049,-28.5775 204.0049,-32.5775 200.0049,-32.5775" fill="none" stroke="#000000"/>
<text fill="#000000" font-family="Courier,monospace" font-size="10.00" text-anchor="start" x="188.002" y="-17.5775">q2</text>
</g>
<!-- 2&#45;&gt;3 -->
<g class="edge" id="edge5">
<title>2-&gt;3</title>
<path d="M133.1738,-20.5775C144.0063,-20.5775 161.4036,-20.5775 174.8235,-20.5775" fill="none" stroke="#000000"/>
<polygon fill="#000000" points="179.9328,-20.5775 174.9328,-22.8276 177.4328,-20.5776 174.9328,-20.5776 174.9328,-20.5776 174.9328,-20.5776 177.4328,-20.5776 174.9328,-18.3276 179.9328,-20.5775 179.9328,-20.5775" stroke="#000000"/>
<text fill="#000000" font-family="Courier,monospace" font-size="9.00" text-anchor="start" x="154.3015" y="-24.8775">1</text>
</g>
<!-- 3&#45;&gt;1 -->
<g class="edge" id="edge6">
<title>3-&gt;1</title>
<path d="M208.11,-20.5775C221.031,-20.5775 240.1213,-20.5775 253.4725,-20.5775" fill="none" stroke="#000000"/>
<polygon fill="#000000" points="258.8084,-20.5775 253.8085,-22.8276 256.3084,-20.5776 253.8084,-20.5776 253.8084,-20.5776 253.8084,-20.5776 256.3084,-20.5776 253.8084,-18.3276 258.8084,-20.5775 258.8084,-20.5775" stroke="#000000"/>
<text fill="#000000" font-family="Courier,monospace" font-size="9.00" text-anchor="start" x="229.3035" y="-38.3775">0</text>
<text fill="#000000" font-family="Courier,monospace" font-size="9.00" text-anchor="start" x="229.3035" y="-25.3775">1</text>
</g>
</g>
</svg>