<svg height="144pt" viewBox="0.00 0.00 509.03 144.00" width="509pt" xmlns="http://www.w3.org/2000/svg" xmlns:xlink="http://www.w3.org/1999/xlink">
<g class="graph" id="graph0" transform="scale(1 1) rotate(0) translate(4 140)">
<title>%3</title>
<polygon fill="#ffffff" points="-4,4 -4,-140 505.0293,-140 505.0293,4 -4,4" stroke="transparent"/>
<!-- _START -->
<g class="node" id="node1">
<title>_START</title>
</g>
<!-- 18 -->
<g class="node" id="node20">
<title>18</title>
<path d="M61.6711,-49C61.6711,-49 52.3338,-49 52.3338,-49 49.6672,-49 47.0005,-46.3333 47.0005,-43.6667 47.0005,-43.6667 47.0005,-38.3333 47.0005,-38.3333 47.0005,-35.6667 49.6672,-33 52.3338,-33 52.3338,-33 61.6711,-33 61.6711,-33 64.3377,-33 67.0044,-35.6667 67.0044,-38.3333 67.0044,-38.3333 67.0044,-43.6667 67.0044,-43.6667 67.0044,-46.3333 64.3377,-49 61.6711,-49" fill="none" stroke="#000000"/>
<text fill="#000000" font-family="Courier,monospace" font-size="10.00" text-anchor="start" x="51.0015" y="-38">q0</text>
</g>
<!-- _START&#45;&gt;18 -->
<g class="edge" id="edge1">
<title>_START-&gt;18</title>
<path d="M1.1345,-41C5.065,-41 26.4164,-41 41.5518,-41" fill="none" stroke="#000000"/>
<polygon fill="#000000" points="46.803,-41 41.803,-43.2501 44.303,-41 41.803,-41.0001 41.803,-41.0001 41.803,-41.0001 44.303,-41 41.803,-38.7501 46.803,-41 46.803,-41" stroke="#000000"/>
</g>
<!-- 0 -->
<g class="node" id="node2">
<title>0</title>
<path d="M316.6857,-65C316.6857,-65 307.3485,-65 307.3485,-65 304.6818,-65 302.0151,-62.3333 302.0151,-59.6667 302.0151,-59.6667 302.0151,-54.3333 302.0151,-54.3333 302.0151,-51.6667 304.6818,-49 307.3485,-49 307.3485,-49 316.6857,-49 316.6857,-49 319.3524,-49 322.019,-51.6667 322.019,-54.3333 322.019,-54.3333 322.019,-59.6667 322.019,-59.6667 322.019,-62.3333 319.3524,-65 316.6857,-65" fill="none" stroke="#000000"/>
<text fill="#000000" font-family="Courier,monospace" font-size="10.00" text-anchor="start" x="306.0161" y="-54">q0</text>
</g>
<!-- 2 -->
<g class="node" id="node4">
<title>2</title>
<path d="M401.6906,-93C401.6906,-93 392.3534,-93 392.3534,-93 389.6867,-93 387.02,-90.3333 387.02,-87.6667 387.02,-87.6667 387.02,-82.3333 387.02,-82.3333 387.02,-79.6667 389.6867,-77 392.3534,-77 392.3534,-77 401.6906,-77 401.6906,-77 404.3573,-77 407.0239,-79.6667 407.0239,-82.3333 407.0239,-82.3333 407.0239,-87.6667 407.0239,-87.6667 407.0239,-90.3333 404.3573,-93 401.6906,-93" fill="none" stroke="#000000"/>
<text fill="#000000" font-family="Courier,monospace" font-size="10.00" text-anchor="start" x="391.021" y="-82">q0</text>
</g>
<!-- 0&#45;&gt;2 -->
<g class="edge" id="edge9">
<title>0-&gt;2</title>
<path d="M322.1021,-60.3219C336.9283,-65.2056 364.7117,-74.3572 381.9611,-80.039" fill="none" stroke="#000000"/>
<polygon fill="#000000" points="386.9501,-81.6824 381.4971,-82.2551 384.5756,-80.9002 382.2011,-80.118 382.2011,-80.118 382.2011,-80.118 384.5756,-80.9002 382.9051,-77.981 386.9501,-81.6824 386.9501,-81.6824" stroke="#000000"/>
</g>
<!-- 3 -->
<g class="node" id="node5">
<title>3</title>
<path d="M401.6906,-58C401.6906,-58 392.3534,-58 392.3534,-58 389.6867,-58 387.02,-55.3333 387.02,-52.6667 387.02,-52.6667 387.02,-47.3333 387.02,-47.3333 387.02,-44.6667 389.6867,-42 392.3534,-42 392.3534,-42 401.6906,-42 401.6906,-42 404.3573,-42 407.0239,-44.6667 407.0239,-47.3333 407.0239,-47.3333 407.0239,-52.6667 407.0239,-52.6667 407.0239,-55.3333 404.3573,-58 401.6906,-58" fill="none" stroke="#000000"/>
<text fill="#000000" font-family="Courier,monospace" font-size="10.00" text-anchor="start" x="391.021" y="-47">q1</text>
</g>
<!-- 0&#45;&gt;3 -->
<g class="edge" id="edge10">
<title>0-&gt;3</title>
<path d="M322.1021,-56.1695C336.9283,-54.9486 364.7117,-52.6607 381.9611,-51.2402" fill="none" stroke="#000000"/>
<polygon fill="#000000" points="386.9501,-50.8294 382.1517,-53.4823 384.4585,-51.0346 381.967,-51.2398 381.967,-51.2398 381.967,-51.2398 384.4585,-51.0346 381.7823,-48.9974 386.9501,-50.8294 386.9501,-50.8294" stroke="#000000"/>
</g>
<!-- 1 -->
<g class="node" id="node3">
<title>1</title>
<path d="M316.6857,-16C316.6857,-16 307.3485,-16 307.3485,-16 304.6818,-16 302.0151,-13.3333 302.0151,-10.6667 302.0151,-10.6667 302.0151,-5.3333 302.0151,-5.3333 302.0151,-2.6667 304.6818,0 307.3485,0 307.3485,0 316.6857,0 316.6857,0 319.3524,0 322.019,-2.6667 322.019,-5.3333 322.019,-5.3333 322.019,-10.6667 322.019,-10.6667 322.019,-13.3333 319.3524,-16 316.6857,-16" fill="none" stroke="#000000"/>
<text fill="#000000" font-family="Courier,monospace" font-size="10.00" text-anchor="start" x="306.0161" y="-5">q2</text>
</g>
<!-- 4 -->
<g class="node" id="node6">
<title>4</title>
<path d="M401.6906,-16C401.6906,-16 392.3534,-16 392.3534,-16 389.6867,-16 387.02,-13.3333 387.02,-10.6667 387.02,-10.6667 387.02,-5.3333 387.02,-5.3333 387.02,-2.6667 389.6867,0 392.3534,0 392.3534,0 401.6906,0 401.6906,0 404.3573,0 407.0239,-2.6667 407.0239,-5.3333 407.0239,-5.3333 407.0239,-10.6667 407.0239,-10.6667 407.0239,-13.3333 404.3573,-16 401.6906,-16" fill="none" stroke="#000000"/>
<text fill="#000000" font-family="Courier,monospace" font-size="10.00" text-anchor="start" x="391.021" y="-5">qe</text>
</g>
<!-- 1&#45;&gt;4 -->
<g class="edge" id="edge11">
<title>1-&gt;4</title>
<path d="M322.1021,-8C336.8005,-8 364.2336,-8 381.5126,-8" fill="none" stroke="#000000"/>
<polygon fill="#000000" points="386.9501,-8 381.9502,-10.2501 384.4501,-8 381.9501,-8.0001 381.9501,-8.0001 381.9501,-8.0001 384.4501,-8 381.9501,-5.7501 386.9501,-8 386.9501,-8" stroke="#000000"/>
</g>
<!-- 13 -->
<g class="node" id="node15">
<title>13</title>
<path d="M486.6955,-95C486.6955,-95 477.3582,-95 477.3582,-95 474.6916,-95 472.0249,-92.3333 472.0249,-89.6667 472.0249,-89.6667 472.0249,-84.3333 472.0249,-84.3333 472.0249,-81.6667 474.6916,-79 477.3582,-79 477.3582,-79 486.6955,-79 486.6955,-79 489.3621,-79 492.0288,-81.6667 492.0288,-84.3333 492.0288,-84.3333 492.0288,-89.6667 492.0288,-89.6667 492.0288,-92.3333 489.3621,-95 486.6955,-95" fill="none" stroke="#000000"/>
<text fill="#000000" font-family="Courier,monospace" font-size="10.00" text-anchor="start" x="476.0259" y="-84">q0</text>
</g>
<!-- 2&#45;&gt;13 -->
<g class="edge" id="edge12">
<title>2-&gt;13</title>
<path d="M407.107,-85.2373C421.8053,-85.5831 449.2385,-86.2286 466.5175,-86.6351" fill="none" stroke="#000000"/>
<polygon fill="#000000" points="471.955,-86.763 466.9034,-88.8947 469.4557,-86.7042 466.9564,-86.6453 466.9564,-86.6453 466.9564,-86.6453 469.4557,-86.7042 467.0093,-84.396 471.955,-86.763 471.955,-86.763" stroke="#000000"/>
</g>
<!-- 8 -->
<g class="node" id="node10">
<title>8</title>
<path d="M486.6952,-57C486.6952,-57 477.3585,-57 477.3585,-57 474.6918,-57 472.0252,-54.3333 472.0252,-51.6667 472.0252,-51.6667 472.0252,-46.3333 472.0252,-46.3333 472.0252,-43.6667 474.6918,-41 477.3585,-41 477.3585,-41 486.6952,-41 486.6952,-41 489.3619,-41 492.0285,-43.6667 492.0285,-46.3333 492.0285,-46.3333 492.0285,-51.6667 492.0285,-51.6667 492.0285,-54.3333 489.3619,-57 486.6952,-57" fill="none" stroke="#000000"/>
<path d="M488.0288,-61C488.0288,-61 476.0249,-61 476.0249,-61 472.0249,-61 468.0249,-57 468.0249,-53 468.0249,-53 468.0249,-45 468.0249,-45 468.0249,-41 472.0249,-37 476.0249,-37 476.0249,-37 488.0288,-37 488.0288,-37 492.0288,-37 496.0288,-41 496.0288,-45 496.0288,-45 496.0288,-53 496.0288,-53 496.0288,-57 492.0288,-61 488.0288,-61" fill="none" stroke="#000000"/>
<text fill="#000000" font-family="Courier,monospace" font-size="10.00" text-anchor="start" x="476.0259" y="-46">q2</text>
</g>
<!-- 3&#45;&gt;8 -->
<g class="edge" id="edge13">
<title>3-&gt;8</title>
<path d="M407.107,-49.8814C420.8172,-49.7201 445.6075,-49.4284 462.9019,-49.225" fill="none" stroke="#000000"/>
<polygon fill="#000000" points="468.0079,-49.1649 463.0348,-51.4737 465.5081,-49.1944 463.0082,-49.2238 463.0082,-49.2238 463.0082,-49.2238 465.5081,-49.1944 462.9817,-46.974 468.0079,-49.1649 468.0079,-49.1649" stroke="#000000"/>
</g>
<!-- 5 -->
<g class="node" id="node7">
<title>5</title>
<path d="M486.6955,-16C486.6955,-16 477.3582,-16 477.3582,-16 474.6916,-16 472.0249,-13.3333 472.0249,-10.6667 472.0249,-10.6667 472.0249,-5.3333 472.0249,-5.3333 472.0249,-2.6667 474.6916,0 477.3582,0 477.3582,0 486.6955,0 486.6955,0 489.3621,0 492.0288,-2.6667 492.0288,-5.3333 492.0288,-5.3333 492.0288,-10.6667 492.0288,-10.6667 492.0288,-13.3333 489.3621,-16 486.6955,-16" fill="none" stroke="#000000"/>
<text fill="#000000" font-family="Courier,monospace" font-size="10.00" text-anchor="start" x="476.0259" y="-5">qe</text>
</g>
<!-- 4&#45;&gt;5 -->
<g class="edge" id="edge14">
<title>4-&gt;5</title>
<path d="M407.107,-8C421.8053,-8 449.2385,-8 466.5175,-8" fill="none" stroke="#000000"/>
<polygon fill="#000000" points="471.955,-8 466.955,-10.2501 469.455,-8 466.955,-8.0001 466.955,-8.0001 466.955,-8.0001 469.455,-8 466.955,-5.7501 471.955,-8 471.955,-8" stroke="#000000"/>
</g>
<!-- 6 -->
<g class="node" id="node8">
<title>6</title>
</g>
<!-- 9 -->
<g class="node" id="node11">
<title>9</title>
</g>
<!-- 6&#45;&gt;9 -->
<g class="edge" id="edge15">
<title>6-&gt;9</title>
<path d="M76.2914,-121C88.5727,-121 104.5842,-121 117.7276,-121" fill="none" stroke="#ffffff"/>
<polygon fill="#ffffff" points="122.7947,-121 117.7948,-123.2501 120.2947,-121 117.7947,-121.0001 117.7947,-121.0001 117.7947,-121.0001 120.2947,-121 117.7947,-118.7501 122.7947,-121 122.7947,-121" stroke="#ffffff"/>
<text fill="#000000" font-family="Courier,monospace" font-size="9.00" text-anchor="start" x="97.3044" y="-125.3">0</text>
</g>
<!-- 7 -->
<g class="node" id="node9">
<title>7</title>
</g>
<!-- 10 -->
<g class="node" id="node12">
<title>10</title>
</g>
<!-- 9&#45;&gt;10 -->
<g class="edge" id="edge16">
<title>9-&gt;10</title>
<path d="M161.2962,-121C173.5776,-121 189.589,-121 202.7325,-121" fill="none" stroke="#ffffff"/>
<polygon fill="#ffffff" points="207.7996,-121 202.7997,-123.2501 205.2996,-121 202.7996,-121.0001 202.7996,-121.0001 202.7996,-121.0001 205.2996,-121 202.7996,-118.7501 207.7996,-121 207.7996,-121" stroke="#ffffff"/>
<text fill="#000000" font-family="Courier,monospace" font-size="9.00" text-anchor="start" x="182.3093" y="-125.3">0</text>
</g>
<!-- 11 -->
<g class="node" id="node13">
<title>11</title>
</g>
<!-- 10&#45;&gt;11 -->
<g class="edge" id="edge17">
<title>10-&gt;11</title>
<path d="M246.3011,-121C258.5824,-121 274.5939,-121 287.7374,-121" fill="none" stroke="#ffffff"/>
<polygon fill="#ffffff" points="292.8045,-121 287.8045,-123.2501 290.3045,-121 287.8045,-121.0001 287.8045,-121.0001 287.8045,-121.0001 290.3045,-121 287.8045,-118.7501 292.8045,-121 292.8045,-121" stroke="#ffffff"/>
<text fill="#000000" font-family="Courier,monospace" font-size="9.00" text-anchor="start" x="267.3142" y="-125.3">1</text>
</g>
<!-- 12 -->
<g class="node" id="node14">
<title>12</title>
</g>
<!-- 11&#45;&gt;12 -->
<g class="edge" id="edge18">
<title>11-&gt;12</title>
<path d="M331.306,-121C343.5873,-121 359.5988,-121 372.7423,-121" fill="none" stroke="#ffffff"/>
<polygon fill="#ffffff" points="377.8094,-121 372.8094,-123.2501 375.3094,-121 372.8094,-121.0001 372.8094,-121.0001 372.8094,-121.0001 375.3094,-121 372.8093,-118.7501 377.8094,-121 377.8094,-121" stroke="#ffffff"/>
<text fill="#000000" font-family="Courier,monospace" font-size="9.00" text-anchor="start" x="352.3191" y="-125.3">0</text>
</g>
<!-- 12&#45;&gt;7 -->
<g class="edge" id="edge19">
<title>12-&gt;7</title>
<path d="M416.3109,-121C428.5922,-121 444.6037,-121 457.7472,-121" fill="none" stroke="#ffffff"/>
<polygon fill="#ffffff" points="462.8143,-121 457.8143,-123.2501 460.3143,-121 457.8143,-121.0001 457.8143,-121.0001 457.8143,-121.0001 460.3143,-121 457.8142,-118.7501 462.8143,-121 462.8143,-121" stroke="#ffffff"/>
<text fill="#000000" font-family="Courier,monospace" font-size="9.00" text-anchor="start" x="437.324" y="-125.3">1</text>
</g>
<!-- 14 -->
<g class="node" id="node16">
<title>14</title>
<path d="M146.6759,-66C146.6759,-66 137.3387,-66 137.3387,-66 134.672,-66 132.0054,-63.3333 132.0054,-60.6667 132.0054,-60.6667 132.0054,-55.3333 132.0054,-55.3333 132.0054,-52.6667 134.672,-50 137.3387,-50 137.3387,-50 146.6759,-50 146.6759,-50 149.3426,-50 152.0093,-52.6667 152.0093,-55.3333 152.0093,-55.3333 152.0093,-60.6667 152.0093,-60.6667 152.0093,-63.3333 149.3426,-66 146.6759,-66" fill="none" stroke="#000000"/>
<text fill="#000000" font-family="Courier,monospace" font-size="10.00" text-anchor="start" x="136.0063" y="-55">q1</text>
</g>
<!-- 15 -->
<g class="node" id="node17">
<title>15</title>
<path d="M231.6808,-65C231.6808,-65 222.3436,-65 222.3436,-65 219.6769,-65 217.0103,-62.3333 217.0103,-59.6667 217.0103,-59.6667 217.0103,-54.3333 217.0103,-54.3333 217.0103,-51.6667 219.6769,-49 222.3436,-49 222.3436,-49 231.6808,-49 231.6808,-49 234.3475,-49 237.0142,-51.6667 237.0142,-54.3333 237.0142,-54.3333 237.0142,-59.6667 237.0142,-59.6667 237.0142,-62.3333 234.3475,-65 231.6808,-65" fill="none" stroke="#000000"/>
<text fill="#000000" font-family="Courier,monospace" font-size="10.00" text-anchor="start" x="221.0112" y="-54">q0</text>
</g>
<!-- 14&#45;&gt;15 -->
<g class="edge" id="edge6">
<title>14-&gt;15</title>
<path d="M152.0923,-57.8814C166.7907,-57.7084 194.2238,-57.3857 211.5028,-57.1825" fill="none" stroke="#000000"/>
<polygon fill="#000000" points="216.9403,-57.1185 211.9672,-59.4272 214.4405,-57.1479 211.9407,-57.1774 211.9407,-57.1774 211.9407,-57.1774 214.4405,-57.1479 211.9142,-54.9275 216.9403,-57.1185 216.9403,-57.1185" stroke="#000000"/>
</g>
<!-- 15&#45;&gt;0 -->
<g class="edge" id="edge7">
<title>15-&gt;0</title>
<path d="M237.0972,-57C251.7956,-57 279.2287,-57 296.5077,-57" fill="none" stroke="#000000"/>
<polygon fill="#000000" points="301.9452,-57 296.9453,-59.2501 299.4452,-57 296.9452,-57.0001 296.9452,-57.0001 296.9452,-57.0001 299.4452,-57 296.9452,-54.7501 301.9452,-57 301.9452,-57" stroke="#000000"/>
</g>
<!-- 16 -->
<g class="node" id="node18">
<title>16</title>
<path d="M231.6808,-16C231.6808,-16 222.3436,-16 222.3436,-16 219.6769,-16 217.0103,-13.3333 217.0103,-10.6667 217.0103,-10.6667 217.0103,-5.3333 217.0103,-5.3333 217.0103,-2.6667 219.6769,0 222.3436,0 222.3436,0 231.6808,0 231.6808,0 234.3475,0 237.0142,-2.6667 237.0142,-5.3333 237.0142,-5.3333 237.0142,-10.6667 237.0142,-10.6667 237.0142,-13.3333 234.3475,-16 231.6808,-16" fill="none" stroke="#000000"/>
<text fill="#000000" font-family="Courier,monospace" font-size="10.00" text-anchor="start" x="221.0112" y="-5">q1</text>
</g>
<!-- 16&#45;&gt;1 -->
<g class="edge" id="edge8">
<title>16-&gt;1</title>
<path d="M237.0972,-8C251.7956,-8 279.2287,-8 296.5077,-8" fill="none" stroke="#000000"/>
<polygon fill="#000000" points="301.9452,-8 296.9453,-10.2501 299.4452,-8 296.9452,-8.0001 296.9452,-8.0001 296.9452,-8.0001 299.4452,-8 296.9452,-5.7501 301.9452,-8 301.9452,-8" stroke="#000000"/>
</g>
<!-- 17 -->
<g class="node" id="node19">
<title>17</title>
<path d="M146.6759,-32C146.6759,-32 137.3387,-32 137.3387,-32 134.672,-32 132.0054,-29.3333 132.0054,-26.6667 132.0054,-26.6667 132.0054,-21.3333 132.0054,-21.3333 132.0054,-18.6667 134.672,-16 137.3387,-16 137.3387,-16 146.6759,-16 146.6759,-16 149.3426,-16 152.0093,-18.6667 152.0093,-21.3333 152.0093,-21.3333 152.0093,-26.6667 152.0093,-26.6667 152.0093,-29.3333 149.3426,-32 146.6759,-32" fill="none" stroke="#000000"/>
<text fill="#000000" font-family="Courier,monospace" font-size="10.00" text-anchor="start" x="136.0063" y="-21">q0</text>
</g>
<!-- 17&#45;&gt;15 -->
<g class="edge" id="edge4">
<title>17-&gt;15</title>
<path d="M152.0923,-27.9151C166.9185,-33.6708 194.7019,-44.4567 211.9513,-51.1532" fill="none" stroke="#000000"/>
<polygon fill="#000000" points="216.9403,-53.09 211.465,-53.3779 214.6098,-52.1852 212.2793,-51.2804 212.2793,-51.2804 212.2793,-51.2804 214.6098,-52.1852 213.0936,-49.1829 216.9403,-53.09 216.9403,-53.09" stroke="#000000"/>
</g>
<!-- 17&#45;&gt;16 -->
<g class="edge" id="edge5">
<title>17-&gt;16</title>
<path d="M152.0923,-22.1018C166.9185,-19.3111 194.7019,-14.0816 211.9513,-10.8348" fill="none" stroke="#000000"/>
<polygon fill="#000000" points="216.9403,-9.8958 212.4429,-13.0319 214.4835,-10.3583 212.0266,-10.8207 212.0266,-10.8207 212.0266,-10.8207 214.4835,-10.3583 211.6104,-8.6096 216.9403,-9.8958 216.9403,-9.8958" stroke="#000000"/>
</g>
<!-- 18&#45;&gt;14 -->
<g class="edge" id="edge3">
<title>18-&gt;14</title>
<path d="M67.0874,-43.0169C81.9136,-45.982 109.697,-51.5383 126.9464,-54.988" fill="none" stroke="#000000"/>
<polygon fill="#000000" points="131.9355,-55.9857 126.5913,-57.2115 129.484,-55.4954 127.0325,-55.0051 127.0325,-55.0051 127.0325,-55.0051 129.484,-55.4954 127.4738,-52.7988 131.9355,-55.9857 131.9355,-55.9857" stroke="#000000"/>
</g>
<!-- 18&#45;&gt;17 -->
<g class="edge" id="edge2">
<title>18-&gt;17</title>
<path d="M67.0874,-38.9831C81.9136,-36.018 109.697,-30.4617 126.9464,-27.012" fill="none" stroke="#000000"/>
<polygon fill="#000000" points="131.9355,-26.0143 127.4738,-29.2012 129.484,-26.5046 127.0325,-26.9949 127.0325,-26.9949 127.0325,-26.9949 129.484,-26.5046 126.5913,-24.7885 131.9355,-26.0143 131.9355,-26.0143" stroke="#000000"/>
</g>
</g>
</svg>