<svg height="74pt" viewBox="0.00 0.00 216.00 74.00" width="216pt" xmlns="http://www.w3.org/2000/svg" xmlns:xlink="http://www.w3.org/1999/xlink">
<g class="graph" id="graph0" transform="scale(1 1) rotate(0) translate(4 70)">
<title>%3</title>
<polygon fill="#ffffff" points="-4,4 -4,-70 212.0039,-70 212.0039,4 -4,4" stroke="transparent"/>
<!-- _START -->
<g class="node" id="node1">
<title>_START</title>
</g>
<!-- 0 -->
<g class="node" id="node2">
<title>0</title>
<path d="M56.6686,-20C56.6686,-20 47.3314,-20 47.3314,-20 44.6647,-20 41.998,-17.3333 41.998,-14.6667 41.998,-14.6667 41.998,-9.3333 41.998,-9.3333 41.998,-6.6667 44.6647,-4 47.3314,-4 47.3314,-4 56.6686,-4 56.6686,-4 59.3353,-4 62.002,-6.6667 62.002,-9.3333 62.002,-9.3333 62.002,-14.6667 62.002,-14.6667 62.002,-17.3333 59.3353,-20 56.6686,-20" fill="none" stroke="#000000"/>
<text fill="#000000" font-family="Courier,monospace" font-size="10.00" text-anchor="start" x="45.999" y="-9">q0</text>
</g>
<!-- _START&#45;&gt;0 -->
<g class="edge" id="edge1">
<title>_START-&gt;0</title>
<path d="M1.0784,-12C4.5514,-12 22.9474,-12 36.6374,-12" fill="none" stroke="#000000"/>
<polygon fill="#000000" points="41.7945,-12 36.7945,-14.2501 39.2945,-12 36.7945,-12.0001 36.7945,-12.0001 36.7945,-12.0001 39.2945,-12 36.7944,-9.7501 41.7945,-12 41.7945,-12" stroke="#000000"/>
</g>
<!-- 0&#45;&gt;0 -->
<g class="edge" id="edge2">
<title>0-&gt;0</title>
<path d="M47.3184,-20.2534C44.5645,-28.652 46.125,-38 52,-38 56.6816,-38 58.6236,-32.0639 57.8258,-25.4025" fill="none" stroke="#000000"/>
<polygon fill="#000000" points="56.6816,-20.2534 59.9627,-24.6463 57.2239,-22.6939 57.7663,-25.1344 57.7663,-25.1344 57.7663,-25.1344 57.2239,-22.6939 55.5698,-25.6225 56.6816,-20.2534 56.6816,-20.2534" stroke="#000000"/>
<text fill="#000000" font-family="Courier,monospace" font-size="9.00" text-anchor="start" x="49.7996" y="-55.8">0</text>
<text fill="#000000" font-family="Courier,monospace" font-size="9.00" text-anchor="start" x="49.7996" y="-42.8">1</text>
</g>
<!-- 2 -->
<g class="node" id="node4">
<title>2</title>
<path d="M127.6696,-20C127.6696,-20 118.3324,-20 118.3324,-20 115.6657,-20 112.999,-17.3333 112.999,-14.6667 112.999,-14.6667 112.999,-9.3333 112.999,-9.3333 112.999,-6.6667 115.6657,-4 118.3324,-4 118.3324,-4 127.6696,-4 127.6696,-4 130.3363,-4 133.0029,-6.6667 133.0029,-9.3333 133.0029,-9.3333 133.0029,-14.6667 133.0029,-14.6667 133.0029,-17.3333 130.3363,-20 127.6696,-20" fill="none" stroke="#000000"/>
<text fill="#000000" font-family="Courier,monospace" font-size="10.00" text-anchor="start" x="117" y="-9">q1</text>
</g>
<!-- 0&#45;&gt;2 -->
<g class="edge" id="edge3">
<title>0-&gt;2</title>
<path d="M62.1727,-12C74.0883,-12 93.9471,-12 107.7179,-12" fill="none" stroke="#000000"/>
<polygon fill="#000000" points="112.8471,-12 107.8472,-14.2501 110.3471,-12 107.8471,-12.0001 107.8471,-12.0001 107.8471,-12.0001 110.3471,-12 107.8471,-9.7501 112.8471,-12 112.8471,-12" stroke="#000000"/>
<text fill="#000000" font-family="Courier,monospace" font-size="9.00" text-anchor="start" x="87.2996" y="-16.3">0</text>
</g>
<!-- 1 -->
<g class="node" id="node3">
<title>1</title>
<path d="M198.6713,-20C198.6713,-20 189.3346,-20 189.3346,-20 186.6679,-20 184.0013,-17.3333 184.0013,-14.6667 184.0013,-14.6667 184.0013,-9.3333 184.0013,-9.3333 184.0013,-6.6667 186.6679,-4 189.3346,-4 189.3346,-4 198.6713,-4 198.6713,-4 201.3379,-4 204.0046,-6.6667 204.0046,-9.3333 204.0046,-9.3333 204.0046,-14.6667 204.0046,-14.6667 204.0046,-17.3333 201.3379,-20 198.6713,-20" fill="none" stroke="#000000"/>
<path d="M200.0049,-24C200.0049,-24 188.001,-24 188.001,-24 184.001,-24 180.001,-20 180.001,-16 180.001,-16 180.001,-8 180.001,-8 180.001,-4 184.001,0 188.001,0 188.001,0 200.0049,0 200.0049,0 204.0049,0 208.0049,-4 208.0049,-8 208.0049,-8 208.0049,-16 208.0049,-16 208.0049,-20 204.0049,-24 200.0049,-24" fill="none" stroke="#000000"/>
<text fill="#000000" font-family="Courier,monospace" font-size="10.00" text-anchor="start" x="188.002" y="-9">q2</text>
</g>
<!-- 2&#45;&gt;1 -->
<g class="edge" id="edge4">
<title>2-&gt;1</title>
<path d="M133.1738,-12C144.0063,-12 161.4036,-12 174.8235,-12" fill="none" stroke="#000000"/>
<polygon fill="#000000" points="179.9328,-12 174.9328,-14.2501 177.4328,-12 174.9328,-12.0001 174.9328,-12.0001 174.9328,-12.0001 177.4328,-12 174.9328,-9.7501 179.9328,-12 179.9328,-12" stroke="#000000"/>
<text fill="#000000" font-family="Courier,monospace" font-size="9.00" text-anchor="start" x="154.3015" y="-16.3">1</text>
</g>
</g>
</svg>