<svg height="116pt" viewBox="0.00 0.00 615.04 116.00" width="615pt" xmlns="http://www.w3.org/2000/svg" xmlns:xlink="http://www.w3.org/1999/xlink">
<g class="graph" id="graph0" transform="scale(1 1) rotate(0) translate(4 112)">
<title>%3</title>
<polygon fill="#ffffff" points="-4,4 -4,-112 611.0439,-112 611.0439,4 -4,4" stroke="transparent"/>
<!-- _START -->
<g class="node" id="node1">
<title>_START</title>
</g>
<!-- 3 -->
<g class="node" id="node5">
<title>3</title>
<path d="M64.6725,-20C64.6725,-20 43.3314,-20 43.3314,-20 40.6647,-20 37.998,-17.3333 37.998,-14.6667 37.998,-14.6667 37.998,-9.3333 37.998,-9.3333 37.998,-6.6667 40.6647,-4 43.3314,-4 43.3314,-4 64.6725,-4 64.6725,-4 67.3392,-4 70.0059,-6.6667 70.0059,-9.3333 70.0059,-9.3333 70.0059,-14.6667 70.0059,-14.6667 70.0059,-17.3333 67.3392,-20 64.6725,-20" fill="none" stroke="#000000"/>
<text fill="#000000" font-family="Courier,monospace" font-size="10.00" text-anchor="start" x="42" y="-9">{q0}</text>
</g>
<!-- _START&#45;&gt;3 -->
<g class="edge" id="edge1">
<title>_START-&gt;3</title>
<path d="M1.1009,-12C4.2629,-12 19.3327,-12 32.5832,-12" fill="none" stroke="#000000"/>
<polygon fill="#000000" points="37.7317,-12 32.7317,-14.2501 35.2317,-12 32.7317,-12.0001 32.7317,-12.0001 32.7317,-12.0001 35.2317,-12 32.7316,-9.7501 37.7317,-12 37.7317,-12" stroke="#000000"/>
</g>
<!-- 0 -->
<g class="node" id="node2">
<title>0</title>
<path d="M381.6989,-66C381.6989,-66 324.346,-66 324.346,-66 321.6794,-66 319.0127,-63.3333 319.0127,-60.6667 319.0127,-60.6667 319.0127,-55.3333 319.0127,-55.3333 319.0127,-52.6667 321.6794,-50 324.346,-50 324.346,-50 381.6989,-50 381.6989,-50 384.3656,-50 387.0322,-52.6667 387.0322,-55.3333 387.0322,-55.3333 387.0322,-60.6667 387.0322,-60.6667 387.0322,-63.3333 384.3656,-66 381.6989,-66" fill="none" stroke="#000000"/>
<text fill="#000000" font-family="Courier,monospace" font-size="10.00" text-anchor="start" x="323.0176" y="-55">{q0,q1,qe}</text>
</g>
<!-- 0&#45;&gt;0 -->
<g class="edge" id="edge11">
<title>0-&gt;0</title>
<path d="M344.8296,-66.2534C340.0103,-74.652 342.7412,-84 353.0225,-84 361.376,-84 364.7451,-77.8289 363.1299,-71.0099" fill="none" stroke="#000000"/>
<polygon fill="#000000" points="361.2153,-66.2534 365.1697,-70.0516 362.1489,-68.5726 363.0824,-70.8918 363.0824,-70.8918 363.0824,-70.8918 362.1489,-68.5726 360.9952,-71.732 361.2153,-66.2534 361.2153,-66.2534" stroke="#000000"/>
<text fill="#000000" font-family="Courier,monospace" font-size="9.00" text-anchor="start" x="350.822" y="-88.3">0</text>
</g>
<!-- 4 -->
<g class="node" id="node6">
<title>4</title>
<path d="M500.7081,-95C500.7081,-95 443.3563,-95 443.3563,-95 440.6896,-95 438.023,-92.3333 438.023,-89.6667 438.023,-89.6667 438.023,-84.3333 438.023,-84.3333 438.023,-81.6667 440.6896,-79 443.3563,-79 443.3563,-79 500.7081,-79 500.7081,-79 503.3748,-79 506.0415,-81.6667 506.0415,-84.3333 506.0415,-84.3333 506.0415,-89.6667 506.0415,-89.6667 506.0415,-92.3333 503.3748,-95 500.7081,-95" fill="none" stroke="#000000"/>
<path d="M502.042,-99C502.042,-99 442.0225,-99 442.0225,-99 438.0225,-99 434.0225,-95 434.0225,-91 434.0225,-91 434.0225,-83 434.0225,-83 434.0225,-79 438.0225,-75 442.0225,-75 442.0225,-75 502.042,-75 502.042,-75 506.042,-75 510.042,-79 510.042,-83 510.042,-83 510.042,-91 510.042,-91 510.042,-95 506.042,-99 502.042,-99" fill="none" stroke="#000000"/>
<text fill="#000000" font-family="Courier,monospace" font-size="10.00" text-anchor="start" x="442.0273" y="-84">{q0,q2,qe}</text>
</g>
<!-- 0&#45;&gt;4 -->
<g class="edge" id="edge10">
<title>0-&gt;4</title>
<path d="M362.1797,-66.1258C371.9857,-74.2362 388.3925,-86.1675 405.0273,-91 412.4833,-93.166 420.5967,-93.9336 428.5204,-93.884" fill="none" stroke="#000000"/>
<polygon fill="#000000" points="433.9653,-93.7263 429.0326,-96.1202 431.4664,-93.7987 428.9674,-93.8712 428.9674,-93.8712 428.9674,-93.8712 431.4664,-93.7987 428.9022,-91.6221 433.9653,-93.7263 433.9653,-93.7263" stroke="#000000"/>
<text fill="#000000" font-family="Courier,monospace" font-size="9.00" text-anchor="start" x="408.3269" y="-97.3">1</text>
</g>
<!-- 1 -->
<g class="node" id="node3">
<title>1</title>
<path d="M601.714,-50C601.714,-50 562.367,-50 562.367,-50 559.7004,-50 557.0337,-47.3333 557.0337,-44.6667 557.0337,-44.6667 557.0337,-39.3333 557.0337,-39.3333 557.0337,-36.6667 559.7004,-34 562.367,-34 562.367,-34 601.714,-34 601.714,-34 604.3807,-34 607.0474,-36.6667 607.0474,-39.3333 607.0474,-39.3333 607.0474,-44.6667 607.0474,-44.6667 607.0474,-47.3333 604.3807,-50 601.714,-50" fill="none" stroke="#000000"/>
<text fill="#000000" font-family="Courier,monospace" font-size="10.00" text-anchor="start" x="561.0371" y="-39">{q0,qe}</text>
</g>
<!-- 1&#45;&gt;0 -->
<g class="edge" id="edge9">
<title>1-&gt;0</title>
<path d="M556.8858,-43.3339C527.4256,-44.9415 477.1609,-47.8255 434.0273,-51 420.4809,-51.997 405.6731,-53.2335 392.4662,-54.3886" fill="none" stroke="#000000"/>
<polygon fill="#000000" points="387.2981,-54.8435 392.0815,-52.1637 389.7885,-54.6243 392.2789,-54.405 392.2789,-54.405 392.2789,-54.405 389.7885,-54.6243 392.4762,-56.6463 387.2981,-54.8435 387.2981,-54.8435" stroke="#000000"/>
<text fill="#000000" font-family="Courier,monospace" font-size="9.00" text-anchor="start" x="469.8318" y="-55.3">0</text>
</g>
<!-- 1&#45;&gt;1 -->
<g class="edge" id="edge8">
<title>1-&gt;1</title>
<path d="M575.0181,-50.2534C570.8872,-58.652 573.228,-68 582.0405,-68 589.2007,-68 592.0885,-61.8289 590.704,-55.0099" fill="none" stroke="#000000"/>
<polygon fill="#000000" points="589.063,-50.2534 592.8208,-54.2462 589.8784,-52.6167 590.6938,-54.98 590.6938,-54.98 590.6938,-54.98 589.8784,-52.6167 588.5668,-55.7139 589.063,-50.2534 589.063,-50.2534" stroke="#000000"/>
<text fill="#000000" font-family="Courier,monospace" font-size="9.00" text-anchor="start" x="579.8401" y="-72.3">1</text>
</g>
<!-- 2 -->
<g class="node" id="node4">
<title>2</title>
<path d="M161.6808,-20C161.6808,-20 122.3338,-20 122.3338,-20 119.6672,-20 117.0005,-17.3333 117.0005,-14.6667 117.0005,-14.6667 117.0005,-9.3333 117.0005,-9.3333 117.0005,-6.6667 119.6672,-4 122.3338,-4 122.3338,-4 161.6808,-4 161.6808,-4 164.3475,-4 167.0142,-6.6667 167.0142,-9.3333 167.0142,-9.3333 167.0142,-14.6667 167.0142,-14.6667 167.0142,-17.3333 164.3475,-20 161.6808,-20" fill="none" stroke="#000000"/>
<text fill="#000000" font-family="Courier,monospace" font-size="10.00" text-anchor="start" x="121.0039" y="-9">{q0,q1}</text>
</g>
<!-- 2&#45;&gt;2 -->
<g class="edge" id="edge5">
<title>2-&gt;2</title>
<path d="M134.9849,-20.2534C130.854,-28.652 133.1948,-38 142.0073,-38 149.1675,-38 152.0553,-31.8289 150.6708,-25.0099" fill="none" stroke="#000000"/>
<polygon fill="#000000" points="149.0298,-20.2534 152.7876,-24.2462 149.8452,-22.6167 150.6606,-24.98 150.6606,-24.98 150.6606,-24.98 149.8452,-22.6167 148.5336,-25.7139 149.0298,-20.2534 149.0298,-20.2534" stroke="#000000"/>
<text fill="#000000" font-family="Courier,monospace" font-size="9.00" text-anchor="start" x="139.8069" y="-42.3">0</text>
</g>
<!-- 5 -->
<g class="node" id="node7">
<title>5</title>
<path d="M262.6872,-20C262.6872,-20 223.3411,-20 223.3411,-20 220.6745,-20 218.0078,-17.3333 218.0078,-14.6667 218.0078,-14.6667 218.0078,-9.3333 218.0078,-9.3333 218.0078,-6.6667 220.6745,-4 223.3411,-4 223.3411,-4 262.6872,-4 262.6872,-4 265.3539,-4 268.0205,-6.6667 268.0205,-9.3333 268.0205,-9.3333 268.0205,-14.6667 268.0205,-14.6667 268.0205,-17.3333 265.3539,-20 262.6872,-20" fill="none" stroke="#000000"/>
<path d="M264.021,-24C264.021,-24 222.0073,-24 222.0073,-24 218.0073,-24 214.0073,-20 214.0073,-16 214.0073,-16 214.0073,-8 214.0073,-8 214.0073,-4 218.0073,0 222.0073,0 222.0073,0 264.021,0 264.021,0 268.021,0 272.021,-4 272.021,-8 272.021,-8 272.021,-16 272.021,-16 272.021,-20 268.021,-24 264.021,-24" fill="none" stroke="#000000"/>
<text fill="#000000" font-family="Courier,monospace" font-size="10.00" text-anchor="start" x="222.0107" y="-9">{q0,q2}</text>
</g>
<!-- 2&#45;&gt;5 -->
<g class="edge" id="edge4">
<title>2-&gt;5</title>
<path d="M167.2351,-12C179.7186,-12 194.9783,-12 208.5237,-12" fill="none" stroke="#000000"/>
<polygon fill="#000000" points="213.8168,-12 208.8168,-14.2501 211.3168,-12 208.8168,-12.0001 208.8168,-12.0001 208.8168,-12.0001 211.3168,-12 208.8168,-9.7501 213.8168,-12 213.8168,-12" stroke="#000000"/>
<text fill="#000000" font-family="Courier,monospace" font-size="9.00" text-anchor="start" x="188.3103" y="-16.3">1</text>
</g>
<!-- 3&#45;&gt;2 -->
<g class="edge" id="edge3">
<title>3-&gt;2</title>
<path d="M70.1435,-12C81.8108,-12 97.9177,-12 111.9259,-12" fill="none" stroke="#000000"/>
<polygon fill="#000000" points="116.9798,-12 111.9799,-14.2501 114.4798,-12 111.9798,-12.0001 111.9798,-12.0001 111.9798,-12.0001 114.4798,-12 111.9798,-9.7501 116.9798,-12 116.9798,-12" stroke="#000000"/>
<text fill="#000000" font-family="Courier,monospace" font-size="9.00" text-anchor="start" x="91.3035" y="-16.3">0</text>
</g>
<!-- 3&#45;&gt;3 -->
<g class="edge" id="edge2">
<title>3-&gt;3</title>
<path d="M49.0277,-20.2534C46.1017,-28.652 47.7598,-38 54.002,-38 58.9762,-38 61.0395,-32.0639 60.1918,-25.4025" fill="none" stroke="#000000"/>
<polygon fill="#000000" points="58.9762,-20.2534 62.3149,-24.6027 59.5507,-22.6866 60.1251,-25.1197 60.1251,-25.1197 60.1251,-25.1197 59.5507,-22.6866 57.9353,-25.6367 58.9762,-20.2534 58.9762,-20.2534" stroke="#000000"/>
<text fill="#000000" font-family="Courier,monospace" font-size="9.00" text-anchor="start" x="51.8015" y="-42.3">1</text>
</g>
<!-- 4&#45;&gt;0 -->
<g class="edge" id="edge13">
<title>4-&gt;0</title>
<path d="M433.8281,-76.5326C427.8799,-74.9709 421.7957,-73.4127 416.0273,-72 408.2762,-70.1018 399.9616,-68.1762 391.9969,-66.3854" fill="none" stroke="#000000"/>
<polygon fill="#000000" points="387.0911,-65.2892 392.4615,-64.1838 389.5309,-65.8344 391.9708,-66.3796 391.9708,-66.3796 391.9708,-66.3796 389.5309,-65.8344 391.4801,-68.5755 387.0911,-65.2892 387.0911,-65.2892" stroke="#000000"/>
<text fill="#000000" font-family="Courier,monospace" font-size="9.00" text-anchor="start" x="408.3269" y="-76.3">0</text>
</g>
<!-- 4&#45;&gt;1 -->
<g class="edge" id="edge12">
<title>4-&gt;1</title>
<path d="M501.5124,-74.9408C518.931,-67.8156 540.7376,-58.8954 557.2638,-52.1352" fill="none" stroke="#000000"/>
<polygon fill="#000000" points="562.2124,-50.1109 558.4365,-54.0865 559.8985,-51.0574 557.5846,-52.004 557.5846,-52.004 557.5846,-52.004 559.8985,-51.0574 556.7327,-49.9215 562.2124,-50.1109 562.2124,-50.1109" stroke="#000000"/>
<text fill="#000000" font-family="Courier,monospace" font-size="9.00" text-anchor="start" x="531.3367" y="-67.3">1</text>
</g>
<!-- 5&#45;&gt;0 -->
<g class="edge" id="edge7">
<title>5-&gt;0</title>
<path d="M271.9175,-24.086C289.5711,-31.4678 311.8942,-40.8022 328.6498,-47.8086" fill="none" stroke="#000000"/>
<polygon fill="#000000" points="333.6597,-49.9035 328.1787,-50.0503 331.3532,-48.939 329.0468,-47.9745 329.0468,-47.9745 329.0468,-47.9745 331.3532,-48.939 329.9148,-45.8987 333.6597,-49.9035 333.6597,-49.9035" stroke="#000000"/>
<text fill="#000000" font-family="Courier,monospace" font-size="9.00" text-anchor="start" x="293.3171" y="-39.3">0</text>
</g>
<!-- 5&#45;&gt;1 -->
<g class="edge" id="edge6">
<title>5-&gt;1</title>
<path d="M272.2128,-14.5837C335.9523,-20.224 487.016,-33.5914 551.7445,-39.3191" fill="none" stroke="#000000"/>
<polygon fill="#000000" points="556.995,-39.7838 551.8161,-41.5842 554.5047,-39.5633 552.0144,-39.3429 552.0144,-39.3429 552.0144,-39.3429 554.5047,-39.5633 552.2128,-37.1017 556.995,-39.7838 556.995,-39.7838" stroke="#000000"/>
<text fill="#000000" font-family="Courier,monospace" font-size="9.00" text-anchor="start" x="408.3269" y="-31.3">1</text>
</g>
</g>
</svg>