<svg height="73pt" viewBox="0.00 0.00 613.04 73.00" width="613pt" xmlns="http://www.w3.org/2000/svg" xmlns:xlink="http://www.w3.org/1999/xlink">
<g class="graph" id="graph0" transform="scale(1 1) rotate(0) translate(4 69)">
<title>%3</title>
<polygon fill="#ffffff" points="-4,4 -4,-69 609.0449,-69 609.0449,4 -4,4" stroke="transparent"/>
<!-- _START -->
<g class="node" id="node1">
<title>_START</title>
</g>
<!-- 8 -->
<g class="node" id="node10">
<title>8</title>
<path d="M67.673,-20C67.673,-20 46.3319,-20 46.3319,-20 43.6652,-20 40.9985,-17.3333 40.9985,-14.6667 40.9985,-14.6667 40.9985,-9.3333 40.9985,-9.3333 40.9985,-6.6667 43.6652,-4 46.3319,-4 46.3319,-4 67.673,-4 67.673,-4 70.3397,-4 73.0063,-6.6667 73.0063,-9.3333 73.0063,-9.3333 73.0063,-14.6667 73.0063,-14.6667 73.0063,-17.3333 70.3397,-20 67.673,-20" fill="none" stroke="#000000"/>
<text fill="#000000" font-family="Courier,monospace" font-size="10.00" text-anchor="start" x="45.0005" y="-9">{q0}</text>
</g>
<!-- _START&#45;&gt;8 -->
<g class="edge" id="edge1">
<title>_START-&gt;8</title>
<path d="M1.1345,-12C4.5899,-12 21.5091,-12 35.8324,-12" fill="none" stroke="#000000"/>
<polygon fill="#000000" points="40.9622,-12 35.9623,-14.2501 38.4622,-12 35.9622,-12.0001 35.9622,-12.0001 35.9622,-12.0001 38.4622,-12 35.9622,-9.7501 40.9622,-12 40.9622,-12" stroke="#000000"/>
</g>
<!-- 0 -->
<g class="node" id="node2">
<title>0</title>
</g>
<!-- 10 -->
<g class="node" id="node12">
<title>10</title>
</g>
<!-- 0&#45;&gt;10 -->
<g class="edge" id="edge9">
<title>0-&gt;10</title>
<path d="M264.1806,-50C279.46,-50 300.9611,-50 317.4956,-50" fill="none" stroke="#ffffff"/>
<polygon fill="#ffffff" points="322.8964,-50 317.8964,-52.2501 320.3964,-50 317.8964,-50.0001 317.8964,-50.0001 317.8964,-50.0001 320.3964,-50 317.8963,-47.7501 322.8964,-50 322.8964,-50" stroke="#ffffff"/>
<text fill="#000000" font-family="Courier,monospace" font-size="9.00" text-anchor="start" x="291.3181" y="-54.3">1</text>
</g>
<!-- 1 -->
<g class="node" id="node3">
<title>1</title>
</g>
<!-- 2 -->
<g class="node" id="node4">
<title>2</title>
</g>
<!-- 1&#45;&gt;2 -->
<g class="edge" id="edge7">
<title>1-&gt;2</title>
<path d="M76.3024,-50C90.0573,-50 108.6578,-50 123.4675,-50" fill="none" stroke="#ffffff"/>
<polygon fill="#ffffff" points="128.7361,-50 123.7362,-52.2501 126.2361,-50 123.7361,-50.0001 123.7361,-50.0001 123.7361,-50.0001 126.2361,-50 123.7361,-47.7501 128.7361,-50 128.7361,-50" stroke="#ffffff"/>
<text fill="#000000" font-family="Courier,monospace" font-size="9.00" text-anchor="start" x="97.3044" y="-54.3">0</text>
</g>
<!-- 2&#45;&gt;0 -->
<g class="edge" id="edge8">
<title>2-&gt;0</title>
<path d="M167.1737,-50C182.4531,-50 203.9543,-50 220.4888,-50" fill="none" stroke="#ffffff"/>
<polygon fill="#ffffff" points="225.8895,-50 220.8896,-52.2501 223.3895,-50 220.8895,-50.0001 220.8895,-50.0001 220.8895,-50.0001 223.3895,-50 220.8895,-47.7501 225.8895,-50 225.8895,-50" stroke="#ffffff"/>
<text fill="#000000" font-family="Courier,monospace" font-size="9.00" text-anchor="start" x="194.3113" y="-54.3">0</text>
</g>
<!-- 3 -->
<g class="node" id="node5">
<title>3</title>
<path d="M595.716,-20C595.716,-20 538.3641,-20 538.3641,-20 535.6975,-20 533.0308,-17.3333 533.0308,-14.6667 533.0308,-14.6667 533.0308,-9.3333 533.0308,-9.3333 533.0308,-6.6667 535.6975,-4 538.3641,-4 538.3641,-4 595.716,-4 595.716,-4 598.3826,-4 601.0493,-6.6667 601.0493,-9.3333 601.0493,-9.3333 601.0493,-14.6667 601.0493,-14.6667 601.0493,-17.3333 598.3826,-20 595.716,-20" fill="none" stroke="#000000"/>
<path d="M597.0498,-24C597.0498,-24 537.0303,-24 537.0303,-24 533.0303,-24 529.0303,-20 529.0303,-16 529.0303,-16 529.0303,-8 529.0303,-8 529.0303,-4 533.0303,0 537.0303,0 537.0303,0 597.0498,0 597.0498,0 601.0498,0 605.0498,-4 605.0498,-8 605.0498,-8 605.0498,-16 605.0498,-16 605.0498,-20 601.0498,-24 597.0498,-24" fill="none" stroke="#000000"/>
<text fill="#000000" font-family="Courier,monospace" font-size="10.00" text-anchor="start" x="537.0352" y="-9">{q0,q2,qe}</text>
</g>
<!-- 4 -->
<g class="node" id="node6">
<title>4</title>
<path d="M476.7067,-20C476.7067,-20 419.3538,-20 419.3538,-20 416.6872,-20 414.0205,-17.3333 414.0205,-14.6667 414.0205,-14.6667 414.0205,-9.3333 414.0205,-9.3333 414.0205,-6.6667 416.6872,-4 419.3538,-4 419.3538,-4 476.7067,-4 476.7067,-4 479.3734,-4 482.04,-6.6667 482.04,-9.3333 482.04,-9.3333 482.04,-14.6667 482.04,-14.6667 482.04,-17.3333 479.3734,-20 476.7067,-20" fill="none" stroke="#000000"/>
<text fill="#000000" font-family="Courier,monospace" font-size="10.00" text-anchor="start" x="418.0254" y="-9">{q0,q1,qe}</text>
</g>
<!-- 4&#45;&gt;3 -->
<g class="edge" id="edge6">
<title>4-&gt;3</title>
<path d="M482.1337,-12C494.9887,-12 509.7908,-12 523.3988,-12" fill="none" stroke="#000000"/>
<polygon fill="#000000" points="528.7475,-12 523.7475,-14.2501 526.2475,-12 523.7475,-12.0001 523.7475,-12.0001 523.7475,-12.0001 526.2475,-12 523.7474,-9.7501 528.7475,-12 528.7475,-12" stroke="#000000"/>
</g>
<!-- 5 -->
<g class="node" id="node7">
<title>5</title>
<path d="M361.6955,-20C361.6955,-20 322.3485,-20 322.3485,-20 319.6818,-20 317.0151,-17.3333 317.0151,-14.6667 317.0151,-14.6667 317.0151,-9.3333 317.0151,-9.3333 317.0151,-6.6667 319.6818,-4 322.3485,-4 322.3485,-4 361.6955,-4 361.6955,-4 364.3621,-4 367.0288,-6.6667 367.0288,-9.3333 367.0288,-9.3333 367.0288,-14.6667 367.0288,-14.6667 367.0288,-17.3333 364.3621,-20 361.6955,-20" fill="none" stroke="#000000"/>
<text fill="#000000" font-family="Courier,monospace" font-size="10.00" text-anchor="start" x="321.0186" y="-9">{q0,q2}</text>
</g>
<!-- 5&#45;&gt;4 -->
<g class="edge" id="edge5">
<title>5-&gt;4</title>
<path d="M367.1445,-12C379.5773,-12 394.8713,-12 408.8014,-12" fill="none" stroke="#000000"/>
<polygon fill="#000000" points="413.8639,-12 408.864,-14.2501 411.3639,-12 408.8639,-12.0001 408.8639,-12.0001 408.8639,-12.0001 411.3639,-12 408.8639,-9.7501 413.8639,-12 413.8639,-12" stroke="#000000"/>
</g>
<!-- 6 -->
<g class="node" id="node8">
<title>6</title>
<path d="M264.6886,-20C264.6886,-20 225.3416,-20 225.3416,-20 222.675,-20 220.0083,-17.3333 220.0083,-14.6667 220.0083,-14.6667 220.0083,-9.3333 220.0083,-9.3333 220.0083,-6.6667 222.675,-4 225.3416,-4 225.3416,-4 264.6886,-4 264.6886,-4 267.3553,-4 270.022,-6.6667 270.022,-9.3333 270.022,-9.3333 270.022,-14.6667 270.022,-14.6667 270.022,-17.3333 267.3553,-20 264.6886,-20" fill="none" stroke="#000000"/>
<text fill="#000000" font-family="Courier,monospace" font-size="10.00" text-anchor="start" x="224.0117" y="-9">{q0,q1}</text>
</g>
<!-- 6&#45;&gt;5 -->
<g class="edge" id="edge4">
<title>6-&gt;5</title>
<path d="M270.2493,-12C282.9365,-12 298.4074,-12 311.7326,-12" fill="none" stroke="#000000"/>
<polygon fill="#000000" points="316.9141,-12 311.9142,-14.2501 314.4141,-12 311.9141,-12.0001 311.9141,-12.0001 311.9141,-12.0001 314.4141,-12 311.9141,-9.7501 316.9141,-12 316.9141,-12" stroke="#000000"/>
</g>
<!-- 7 -->
<g class="node" id="node9">
<title>7</title>
<path d="M167.6818,-20C167.6818,-20 128.3348,-20 128.3348,-20 125.6681,-20 123.0015,-17.3333 123.0015,-14.6667 123.0015,-14.6667 123.0015,-9.3333 123.0015,-9.3333 123.0015,-6.6667 125.6681,-4 128.3348,-4 128.3348,-4 167.6818,-4 167.6818,-4 170.3485,-4 173.0151,-6.6667 173.0151,-9.3333 173.0151,-9.3333 173.0151,-14.6667 173.0151,-14.6667 173.0151,-17.3333 170.3485,-20 167.6818,-20" fill="none" stroke="#000000"/>
<text fill="#000000" font-family="Courier,monospace" font-size="10.00" text-anchor="start" x="127.0049" y="-9">{q0,q1}</text>
</g>
<!-- 7&#45;&gt;6 -->
<g class="edge" id="edge3">
<title>7-&gt;6</title>
<path d="M173.2425,-12C185.9297,-12 201.4006,-12 214.7258,-12" fill="none" stroke="#000000"/>
<polygon fill="#000000" points="219.9073,-12 214.9074,-14.2501 217.4073,-12 214.9073,-12.0001 214.9073,-12.0001 214.9073,-12.0001 217.4073,-12 214.9073,-9.7501 219.9073,-12 219.9073,-12" stroke="#000000"/>
</g>
<!-- 8&#45;&gt;7 -->
<g class="edge" id="edge2">
<title>8-&gt;7</title>
<path d="M73.2725,-12C85.5667,-12 102.7982,-12 117.6174,-12" fill="none" stroke="#000000"/>
<polygon fill="#000000" points="122.9543,-12 117.9543,-14.2501 120.4543,-12 117.9543,-12.0001 117.9543,-12.0001 117.9543,-12.0001 120.4543,-12 117.9542,-9.7501 122.9543,-12 122.9543,-12" stroke="#000000"/>
</g>
<!-- 9 -->
<g class="node" id="node11">
<title>9</title>
</g>
<!-- 11 -->
<g class="node" id="node13">
<title>11</title>
</g>
<!-- 9&#45;&gt;11 -->
<g class="edge" id="edge11">
<title>9-&gt;11</title>
<path d="M467.1513,-50C487.7115,-50 520.4507,-50 542.8026,-50" fill="none" stroke="#ffffff"/>
<polygon fill="#ffffff" points="547.9665,-50 542.9666,-52.2501 545.4665,-50 542.9665,-50.0001 542.9665,-50.0001 542.9665,-50.0001 545.4665,-50 542.9665,-47.7501 547.9665,-50 547.9665,-50" stroke="#ffffff"/>
<text fill="#000000" font-family="Courier,monospace" font-size="9.00" text-anchor="start" x="503.3347" y="-54.3">1</text>
</g>
<!-- 10&#45;&gt;9 -->
<g class="edge" id="edge10">
<title>10-&gt;9</title>
<path d="M361.4655,-50C378.9491,-50 404.7086,-50 423.5819,-50" fill="none" stroke="#ffffff"/>
<polygon fill="#ffffff" points="428.71,-50 423.71,-52.2501 426.21,-50 423.71,-50.0001 423.71,-50.0001 423.71,-50.0001 426.21,-50 423.7099,-47.7501 428.71,-50 428.71,-50" stroke="#ffffff"/>
<text fill="#000000" font-family="Courier,monospace" font-size="9.00" text-anchor="start" x="388.325" y="-54.3">0</text>
</g>
</g>
</svg>